<svg width="121" height="44" viewBox="0 0 121 44" fill="none" xmlns="http://www.w3.org/2000/svg">
<g clip-path="url(#clip0_3079_37491)">
<path d="M28.1619 15.141C28.3639 15.75 28.4649 16.4605 28.6669 17.0696C28.8689 17.7801 28.9699 18.4906 29.4749 19.0996C29.4749 19.0996 29.4749 19.2011 29.4749 19.3026C29.4749 19.7087 29.3739 20.0132 29.3739 20.4192C29.2729 21.6372 29.5759 22.8553 29.7779 23.9718C30.0809 25.5958 30.3839 27.2199 30.1819 28.844C30.0809 30.1635 29.5759 31.3815 28.6669 32.4981C28.3639 32.9041 27.9599 33.0056 27.4548 32.8026C26.9498 32.5996 26.5458 32.1936 26.4448 31.686C26.3438 31.3815 26.2428 31.077 26.2428 30.671C26.1418 29.3515 26.4448 28.1334 26.8488 26.9154C27.0508 26.2049 27.3538 25.3928 27.5558 24.6823C27.6568 24.4793 27.5558 24.1748 27.5558 23.8703C27.5558 23.7688 27.4548 23.6673 27.3538 23.6673C27.2528 23.6673 27.1518 23.7688 27.1518 23.7688C27.0508 23.8703 26.9498 24.0733 26.9498 24.1748C25.6368 27.5244 23.3137 29.9605 19.9806 31.28C19.8796 31.28 19.7786 31.3815 19.5765 31.3815C19.5765 31.28 19.5765 31.28 19.5765 31.28C19.5765 30.265 19.5765 29.1485 19.5765 28.1334C19.5765 27.2199 19.4755 26.2049 19.4755 25.2913C19.4755 24.5808 19.5765 23.9718 20.0816 23.4643C20.2836 23.2613 20.2836 23.0583 20.0816 22.9568C19.8796 22.7538 19.6775 22.7538 19.4755 22.9568C19.0715 23.3628 18.8695 23.8703 18.7685 24.3778C18.5665 25.3928 18.6675 26.4079 18.7685 27.4229C18.8695 28.844 18.9705 30.3665 18.7685 31.7876C18.5665 32.9041 18.1625 33.8176 17.2535 34.5281C16.7484 34.9342 16.1424 35.0357 15.5364 34.7311C15.1324 34.5281 14.7284 34.2236 14.5264 33.8176C13.9203 32.9041 13.6173 31.7876 13.4153 30.671C13.3143 29.5545 13.4153 28.5394 13.9203 27.6259C14.3243 26.8139 14.9304 26.1034 15.5364 25.4943C15.8394 25.1898 16.1424 24.8853 16.4454 24.5808C17.0514 23.8703 17.0514 23.0583 16.6474 22.2462C16.5464 22.0432 16.3444 21.9417 16.1424 22.0432C15.9404 22.1447 15.9404 22.3477 15.9404 22.5507V22.6523C16.1424 23.1598 16.1424 23.6673 15.7384 24.0733C15.6374 24.1748 15.5364 24.3778 15.3344 24.4793C14.9304 24.8853 14.5264 25.2913 14.1223 25.6974C12.7083 27.3214 12.1023 29.1485 12.5063 31.3815C12.6073 31.6861 12.6073 32.0921 12.7083 32.3966C12.4053 32.3966 12.2033 32.3966 12.0013 32.2951C11.1932 32.1936 10.3852 32.0921 9.67818 31.686C8.76915 31.28 8.06212 30.7725 7.4561 30.062C7.25409 29.859 7.05208 29.859 6.95108 29.9605C6.74907 30.1635 6.74907 30.3665 6.95108 30.468C7.25409 30.7725 7.4561 30.9755 7.75911 31.28C8.76915 32.0921 9.77918 32.7011 11.0922 32.8026C11.0922 33.6146 11.0922 34.4266 10.8902 35.3402C10.3852 37.2687 8.66814 38.3853 6.64807 37.8778C5.33502 37.5732 3.92097 37.2687 2.60792 36.9642C0.789854 36.5582 -0.321186 34.9342 0.0828284 33.1071C0.38584 31.8891 1.09286 31.077 2.2039 30.5695C2.70892 30.3665 3.11294 30.062 3.31494 29.656C3.51695 29.25 3.71896 28.844 3.92097 28.4379C4.42599 27.0169 4.52699 25.4943 4.628 23.8703C4.628 22.8553 4.729 21.7387 4.93101 20.7237C5.33502 18.7951 6.24405 17.0696 7.4561 15.547C8.97115 13.6185 10.7892 11.9944 13.0113 10.7764C13.2133 10.6749 13.5163 10.5734 13.8193 10.3703C13.8193 10.4719 13.7183 10.5734 13.7183 10.6749C13.5163 11.4869 13.3143 12.2989 13.2133 13.1109C13.2133 13.3139 13.3143 13.517 13.5163 13.517C13.7183 13.517 13.8193 13.4154 13.9203 13.1109C14.0213 12.6034 14.0213 12.0959 14.2233 11.5884C14.4254 10.8779 14.6274 10.1673 14.9304 9.55832C15.6374 8.23878 16.8494 7.22374 18.2635 6.71623C20.2836 5.9042 22.4046 5.8027 24.5257 6.31021C26.1418 6.71623 27.5558 7.42675 28.7679 8.74629C29.4749 9.55832 29.9799 10.5734 29.9799 11.6899C29.9799 12.2989 30.1819 12.8064 30.5859 13.3139C30.788 13.6185 31.091 14.0245 31.293 14.329C31.798 15.344 32 16.4605 32 17.5771C32 18.0846 31.697 18.4906 31.293 18.6936C30.788 18.9981 30.2829 18.8966 29.9799 18.3891C29.7779 18.0846 29.6769 17.7801 29.5759 17.4756C29.4749 16.8666 29.3739 16.359 29.1719 15.75C28.9699 15.0395 28.7679 14.329 28.2629 13.72C28.0609 13.517 27.9599 13.5169 27.7578 13.6185C27.3538 13.8215 26.9498 14.126 26.7478 14.532C26.5458 14.8365 26.4448 15.2425 26.3438 15.547C26.1418 16.156 26.0408 16.8666 25.8388 17.4756C25.6368 18.0846 25.3337 18.5921 24.6267 18.7951C24.2227 18.8966 23.8187 18.9981 23.3137 18.9981C22.4046 18.9981 21.6976 18.3891 21.4956 17.4756C21.3946 17.3741 21.3946 17.1711 21.2936 16.8666C21.2936 16.5621 21.1926 16.4605 20.8896 16.4605C20.6876 16.4605 20.5866 16.5621 20.5866 16.8666C20.5866 18.3891 21.3946 19.7087 23.2127 19.8102C24.2227 19.9117 25.1317 19.7087 25.8388 18.9981C26.2428 18.4906 26.5458 17.9831 26.6468 17.3741C26.8488 16.7651 26.9498 16.156 27.1518 15.547C27.2528 15.141 27.4548 14.735 27.8588 14.532C27.9599 14.735 28.0609 14.938 28.1619 15.141ZM20.1826 13.0094C20.1826 12.4004 19.6775 11.8929 18.9705 11.8929C18.3645 11.8929 17.8595 12.4004 17.8595 13.1109C17.8595 13.72 18.3645 14.2275 19.0715 14.2275C19.6775 14.2275 20.1826 13.72 20.1826 13.0094Z" fill="black"/>
<path d="M28.1619 15.141C28.3639 15.75 28.4649 16.4605 28.6669 17.0696C28.8689 17.7801 28.9699 18.4906 29.4749 19.0996C29.4749 19.0996 29.4749 19.2011 29.4749 19.3026C29.4749 19.7087 29.3739 20.0132 29.3739 20.4192C29.2729 21.6372 29.5759 22.8553 29.7779 23.9718C30.0809 25.5958 30.3839 27.2199 30.1819 28.844C30.0809 30.1635 29.5759 31.3815 28.6669 32.4981C28.3639 32.9041 27.9599 33.0056 27.4548 32.8026C26.9498 32.5996 26.5458 32.1936 26.4448 31.686C26.3438 31.3815 26.2428 31.077 26.2428 30.671C26.1418 29.3515 26.4448 28.1334 26.8488 26.9154C27.0508 26.2049 27.3538 25.3928 27.5558 24.6823C27.6568 24.4793 27.5558 24.1748 27.5558 23.8703C27.5558 23.7688 27.4548 23.6673 27.3538 23.6673C27.2528 23.6673 27.1518 23.7688 27.1518 23.7688C27.0508 23.8703 26.9498 24.0733 26.9498 24.1748C25.6368 27.5244 23.3137 29.9605 19.9806 31.28C19.8796 31.28 19.7786 31.3815 19.5765 31.3815C19.5765 31.28 19.5765 31.28 19.5765 31.28C19.5765 30.265 19.5765 29.1485 19.5765 28.1334C19.5765 27.2199 19.4755 26.2049 19.4755 25.2913C19.4755 24.5808 19.5765 23.9718 20.0816 23.4643C20.2836 23.2613 20.2836 23.0583 20.0816 22.9568C19.8796 22.7538 19.6775 22.7538 19.4755 22.9568C19.0715 23.3628 18.8695 23.8703 18.7685 24.3778C18.5665 25.3928 18.6675 26.4079 18.7685 27.4229C18.8695 28.844 18.9705 30.3665 18.7685 31.7876C18.5665 32.9041 18.1625 33.8176 17.2535 34.5281C16.7484 34.9342 16.1424 35.0357 15.5364 34.7311C15.1324 34.5281 14.7284 34.2236 14.5264 33.8176C13.9203 32.9041 13.6173 31.7876 13.4153 30.671C13.3143 29.5545 13.4153 28.5394 13.9203 27.6259C14.3243 26.8139 14.9304 26.1034 15.5364 25.4943C15.8394 25.1898 16.1424 24.8853 16.4454 24.5808C17.0514 23.8703 17.0514 23.0583 16.6474 22.2462C16.5464 22.0432 16.3444 21.9417 16.1424 22.0432C15.9404 22.1447 15.9404 22.3477 15.9404 22.5507V22.6523C16.1424 23.1598 16.1424 23.6673 15.7384 24.0733C15.6374 24.1748 15.5364 24.3778 15.3344 24.4793C14.9304 24.8853 14.5264 25.2913 14.1223 25.6974C12.7083 27.3214 12.1023 29.1485 12.5063 31.3815C12.6073 31.6861 12.6073 32.0921 12.7083 32.3966C12.4053 32.3966 12.2033 32.3966 12.0013 32.2951C11.1932 32.1936 10.3852 32.0921 9.67818 31.686C8.76915 31.28 8.06212 30.7725 7.4561 30.062C7.25409 29.859 7.05208 29.859 6.95108 29.9605C6.74907 30.1635 6.74907 30.3665 6.95108 30.468C7.25409 30.7725 7.4561 30.9755 7.75911 31.28C8.76915 32.0921 9.77918 32.7011 11.0922 32.8026C11.0922 33.6146 11.0922 34.4266 10.8902 35.3402C10.3852 37.2687 8.66814 38.3853 6.64807 37.8778C5.33502 37.5732 3.92097 37.2687 2.60792 36.9642C0.789854 36.5582 -0.321186 34.9342 0.0828284 33.1071C0.38584 31.8891 1.09286 31.077 2.2039 30.5695C2.70892 30.3665 3.11294 30.062 3.31494 29.656C3.51695 29.25 3.71896 28.844 3.92097 28.4379C4.42599 27.0169 4.52699 25.4943 4.628 23.8703C4.628 22.8553 4.729 21.7387 4.93101 20.7237C5.33502 18.7951 6.24405 17.0696 7.4561 15.547C8.97115 13.6185 10.7892 11.9944 13.0113 10.7764C13.2133 10.6749 13.5163 10.5734 13.8193 10.3703C13.8193 10.4719 13.7183 10.5734 13.7183 10.6749C13.5163 11.4869 13.3143 12.2989 13.2133 13.1109C13.2133 13.3139 13.3143 13.517 13.5163 13.517C13.7183 13.517 13.8193 13.4154 13.9203 13.1109C14.0213 12.6034 14.0213 12.0959 14.2233 11.5884C14.4254 10.8779 14.6274 10.1673 14.9304 9.55832C15.6374 8.23878 16.8494 7.22374 18.2635 6.71623C20.2836 5.9042 22.4046 5.8027 24.5257 6.31021C26.1418 6.71623 27.5558 7.42675 28.7679 8.74629C29.4749 9.55832 29.9799 10.5734 29.9799 11.6899C29.9799 12.2989 30.1819 12.8064 30.5859 13.3139C30.788 13.6185 31.091 14.0245 31.293 14.329C31.798 15.344 32 16.4605 32 17.5771C32 18.0846 31.697 18.4906 31.293 18.6936C30.788 18.9981 30.2829 18.8966 29.9799 18.3891C29.7779 18.0846 29.6769 17.7801 29.5759 17.4756C29.4749 16.8666 29.3739 16.359 29.1719 15.75C28.9699 15.0395 28.7679 14.329 28.2629 13.72C28.0609 13.517 27.9599 13.5169 27.7578 13.6185C27.3538 13.8215 26.9498 14.126 26.7478 14.532C26.5458 14.8365 26.4448 15.2425 26.3438 15.547C26.1418 16.156 26.0408 16.8666 25.8388 17.4756C25.6368 18.0846 25.3337 18.5921 24.6267 18.7951C24.2227 18.8966 23.8187 18.9981 23.3137 18.9981C22.4046 18.9981 21.6976 18.3891 21.4956 17.4756C21.3946 17.3741 21.3946 17.1711 21.2936 16.8666C21.2936 16.5621 21.1926 16.4605 20.8896 16.4605C20.6876 16.4605 20.5866 16.5621 20.5866 16.8666C20.5866 18.3891 21.3946 19.7087 23.2127 19.8102C24.2227 19.9117 25.1317 19.7087 25.8388 18.9981C26.2428 18.4906 26.5458 17.9831 26.6468 17.3741C26.8488 16.7651 26.9498 16.156 27.1518 15.547C27.2528 15.141 27.4548 14.735 27.8588 14.532C27.9599 14.735 28.0609 14.938 28.1619 15.141ZM20.1826 13.0094C20.1826 12.4004 19.6775 11.8929 18.9705 11.8929C18.3645 11.8929 17.8595 12.4004 17.8595 13.1109C17.8595 13.72 18.3645 14.2275 19.0715 14.2275C19.6775 14.2275 20.1826 13.72 20.1826 13.0094Z" fill="url(#paint0_linear_3079_37491)"/>
<path d="M45.0121 17.1295L44.4474 20.1413C44.2592 20.0472 44.0709 19.859 43.6945 19.6707C43.318 19.4825 42.9415 19.2942 42.4709 19.106C42.0003 18.9177 41.5297 18.9177 41.0591 18.9177C40.5885 18.9177 40.1179 19.0119 39.9296 19.2942C39.7414 19.5766 39.5531 19.859 39.5531 20.2354C39.5531 20.5178 39.6473 20.8002 39.8355 21.0825C40.0237 21.3649 40.4943 21.7414 41.2473 22.4002C42.3768 23.3414 43.2239 24.0944 43.6003 24.7532C44.0709 25.4121 44.2592 26.1651 44.2592 27.1063C44.2592 27.8592 44.0709 28.5181 43.7886 29.2711C43.5062 30.024 42.9415 30.5887 42.0944 31.0594C41.2473 31.53 40.212 31.8123 38.9884 31.8123C38.0472 31.8123 37.106 31.7182 36.1648 31.4358C35.3177 31.1535 34.5647 30.8711 34 30.4946L34.4706 27.3886C36.0707 28.424 37.3884 28.8946 38.3296 28.8946C38.9884 28.8946 39.3649 28.7063 39.6473 28.3298C39.9296 27.9534 40.0237 27.5769 40.0237 27.2004C40.0237 26.7298 39.8355 26.3533 39.5531 25.9768C39.2708 25.6003 38.6119 24.9415 37.4825 24.0003C36.8236 23.4356 36.353 22.8708 35.9765 22.4943C35.6001 22.1179 35.4118 21.6473 35.3177 21.2708C35.2236 20.8943 35.2236 20.5178 35.2236 20.1413C35.2236 19.6707 35.3177 19.106 35.5059 18.6354C35.6942 18.1648 35.9765 17.6942 36.4471 17.3177C36.8236 16.9412 37.3883 16.5647 38.0472 16.3765C38.706 16.1882 39.459 16 40.3061 16C41.9062 16 43.4121 16.3765 45.0121 17.1295Z" fill="#F8F9FD"/>
<path d="M56.0235 25.3175C56.0235 25.8822 55.9294 26.447 55.8353 27.0117H48.6821C48.6821 28.6117 49.435 29.3647 51.0351 29.3647C51.7881 29.3647 52.4469 29.2706 53.1058 29.0824C53.6705 28.8941 54.4234 28.6117 55.2705 28.3294L54.7058 31.153C53.9528 31.4354 53.294 31.7177 52.8234 31.8119C52.3528 31.906 51.6939 32.0001 51.0351 32.0001C49.5292 32.0001 48.3056 31.7177 47.3644 31.153C46.5173 30.5883 45.8584 29.9294 45.5761 29.0824C45.2937 28.3294 45.1055 27.4823 45.1055 26.7293C45.1055 25.5999 45.3878 24.4704 45.8584 23.5292C46.4232 22.4939 47.082 21.7409 48.0232 21.1762C48.9644 20.6115 49.9998 20.3291 51.2233 20.3291C52.0704 20.3291 52.9175 20.5173 53.6705 20.8938C54.4234 21.2703 54.9882 21.835 55.4588 22.588C55.8353 23.1527 56.0235 24.1881 56.0235 25.3175ZM52.4469 24.941C52.4469 24.8469 52.4469 24.8469 52.4469 24.7528C52.4469 24.6587 52.4469 24.6587 52.4469 24.5645C52.4469 23.2469 51.9763 22.6821 51.1292 22.6821C50.5645 22.6821 50.188 22.8704 49.9056 23.341C49.6233 23.7175 49.3409 24.2822 49.0586 25.0351H52.4469V24.941Z" fill="#F8F9FD"/>
<path d="M68.7311 20.424L67.0369 31.6244H63.3662L63.5544 30.589C63.0838 30.9655 62.7073 31.2479 62.3309 31.5302C61.9544 31.8126 61.3896 31.8126 60.7308 31.8126C59.8837 31.8126 59.2249 31.6244 58.566 31.1537C57.9072 30.6831 57.4366 30.1184 57.1542 29.3655C56.7777 28.6125 56.6836 27.7654 56.6836 26.9183C56.6836 26.1653 56.7777 25.4124 57.0601 24.6594C57.3424 23.9064 57.7189 23.1535 58.3778 22.4946C59.0366 21.8358 59.8837 21.1769 61.0132 20.8004C62.1426 20.3298 63.5544 20.1416 65.1545 20.1416C65.8133 20.1416 66.4722 20.1416 66.8487 20.2357C67.3193 20.2357 67.9781 20.3298 68.7311 20.424ZM64.778 22.8711H64.1192C63.4603 22.8711 62.8015 23.0594 62.2367 23.4358C61.672 23.8123 61.2955 24.2829 60.919 24.9418C60.6367 25.6006 60.4484 26.2595 60.4484 27.0124C60.4484 27.483 60.5426 27.9536 60.8249 28.3301C61.1073 28.7066 61.4838 28.8948 61.9544 28.8948C62.2367 28.8948 62.425 28.8007 62.8015 28.7066C63.0838 28.6125 63.4603 28.3301 63.9309 28.0478L64.778 22.8711Z" fill="#F8F9FD"/>
<path d="M83.9778 16.5647L83.3189 20.0472C82.8483 19.859 82.3777 19.7648 81.9071 19.6707C81.4365 19.5766 81.06 19.4825 80.6835 19.4825C80.307 19.4825 79.9306 19.3884 79.5541 19.3884C78.8011 19.3884 78.1423 19.4825 77.3893 19.7648C76.7304 20.0472 76.0716 20.3296 75.601 20.8002C75.0363 21.2708 74.6598 21.8355 74.3774 22.4943C74.0951 23.1532 73.9068 23.812 73.9068 24.565C73.9068 25.318 74.0951 25.9768 74.3774 26.5415C74.6598 27.1063 75.1304 27.5769 75.7892 27.9534C76.354 28.3298 77.0128 28.424 77.7658 28.424C79.5541 28.424 81.4365 27.7651 83.413 26.3533L82.7542 30.5887C82.3777 30.777 82.0012 30.8711 81.5306 31.0594C81.06 31.2476 80.6835 31.3417 80.4012 31.4358C80.1188 31.53 79.6482 31.6241 79.1776 31.7182C78.707 31.8123 78.2364 31.8123 77.6717 31.8123C76.6363 31.8123 75.6951 31.6241 74.7539 31.3417C73.8127 31.0594 72.9656 30.5887 72.3068 30.024C71.5538 29.4593 70.9891 28.7063 70.6126 27.7651C70.2361 26.8239 70.0479 25.8827 70.0479 24.7532C70.0479 23.812 70.2361 22.8708 70.5185 21.9296C70.8008 20.9884 71.3655 19.9531 72.1185 19.106C72.8715 18.2589 73.9068 17.4118 75.2245 16.8471C76.5422 16.2824 78.1423 16 80.0247 16C80.7776 16 81.4365 16 82.0953 16.0941C82.2836 16.1882 83.0365 16.2824 83.9778 16.5647Z" fill="#F8F9FD"/>
<path d="M95.6496 25.5059C95.6496 26.4471 95.4614 27.2942 95.179 28.0472C94.8967 28.8001 94.4261 29.459 93.8614 30.0237C93.2966 30.5884 92.6378 31.059 91.7907 31.3414C91.0377 31.6238 90.1906 31.812 89.3435 31.812C88.3082 31.812 87.367 31.6238 86.5199 31.1531C85.6728 30.6825 84.9199 30.0237 84.4493 29.1766C83.8845 28.3295 83.6963 27.3883 83.6963 26.2589C83.6963 25.4118 83.8845 24.6588 84.1669 23.9058C84.4493 23.1529 85.014 22.494 85.5787 21.9293C86.1434 21.3646 86.8964 20.894 87.6494 20.5175C88.4023 20.141 89.3436 20.0469 90.1906 20.0469C91.1319 20.0469 92.0731 20.2351 92.9201 20.6116C93.7672 20.9881 94.4261 21.6469 94.9908 22.3999C95.3673 23.3411 95.6496 24.3764 95.6496 25.5059ZM91.8848 25.5059C91.8848 24.847 91.6966 24.2823 91.3201 23.9058C90.9436 23.5294 90.473 23.3411 89.9083 23.3411C89.3436 23.3411 88.8729 23.5294 88.4023 23.9058C88.0259 24.2823 87.7435 24.6588 87.5553 25.1294C87.367 25.6 87.2729 26.0706 87.2729 26.5412C87.2729 27.2001 87.4611 27.6707 87.8376 28.1413C88.2141 28.6119 88.6847 28.8001 89.3435 28.8001C89.8142 28.8001 90.2848 28.6119 90.6612 28.3295C91.0377 28.0472 91.3201 27.5766 91.5083 27.1059C91.7907 26.4471 91.8848 25.9765 91.8848 25.5059Z" fill="#F8F9FD"/>
<path d="M114.003 20.3291L107.603 31.906H105.25L104.121 26.3528L101.203 31.906H99.0381L96.3086 20.3291H99.5087L100.921 26.5411L104.027 20.3291H106.097L107.227 26.5411L110.521 20.3291H114.003Z" fill="#F8F9FD"/>
<path d="M121.157 21.1762L120.875 23.8116C120.31 23.5292 119.745 23.2469 119.086 23.0586C118.427 22.8704 117.863 22.6821 117.486 22.6821C117.016 22.6821 116.733 22.8704 116.733 23.2469C116.733 23.4351 116.827 23.6233 116.921 23.8116C117.016 23.9998 117.298 24.1881 117.674 24.4704C118.051 24.7528 118.333 24.941 118.616 25.2234C119.369 25.8822 119.839 26.447 120.122 26.9176C120.404 27.3882 120.498 27.8588 120.498 28.3294C120.498 28.8941 120.31 29.4588 120.027 30.0236C119.745 30.5883 119.18 31.0589 118.522 31.4354C117.863 31.8119 117.016 32.0001 116.074 32.0001C115.698 32.0001 115.133 31.906 114.474 31.8119C113.815 31.7177 113.063 31.4354 112.31 31.0589L112.78 28.4235C113.627 28.8 114.286 28.9882 114.663 29.1765C115.133 29.3647 115.604 29.3647 116.074 29.3647C116.357 29.3647 116.639 29.2706 116.827 29.1765C117.016 28.9882 117.11 28.8941 117.11 28.7059C117.11 28.5176 117.016 28.2353 116.733 28.047C116.545 27.8588 116.074 27.4823 115.321 27.0117C114.663 26.5411 114.192 26.0705 113.721 25.5058C113.345 24.941 113.063 24.3763 113.063 23.7175C113.063 22.7762 113.439 22.0233 114.192 21.3644C114.945 20.7056 115.98 20.3291 117.392 20.3291C118.145 20.3291 118.804 20.4232 119.369 20.6115C119.933 20.5173 120.592 20.7997 121.157 21.1762Z" fill="#F8F9FD"/>
</g>
<defs>
<linearGradient id="paint0_linear_3079_37491" x1="16" y1="6" x2="16" y2="38" gradientUnits="userSpaceOnUse">
<stop stop-color="#01EFFB"/>
<stop offset="1" stop-color="#0B54E1"/>
</linearGradient>
<clipPath id="clip0_3079_37491">
<rect width="121" height="32" fill="white" transform="translate(0 6)"/>
</clipPath>
</defs>
</svg>
