<svg width="20" height="19" viewBox="0 0 20 19" fill="none" xmlns="http://www.w3.org/2000/svg">
<g clip-path="url(#clip0_7301_47111)">
<path d="M18.938 0.0605469L11.1504 5.94873L12.5663 2.48866L18.938 0.0605469Z" fill="#E17726" stroke="#E17726" stroke-width="0.25" stroke-linecap="round" stroke-linejoin="round"/>
<path d="M1.06055 0.0605469L8.73016 6.00943L7.37323 2.48866L1.06055 0.0605469Z" fill="#E27625" stroke="#E27625" stroke-width="0.25" stroke-linecap="round" stroke-linejoin="round"/>
<path d="M16.1645 13.7803L14.0996 16.9975L18.5244 18.2723L19.7633 13.841L16.1645 13.7803Z" fill="#E27625" stroke="#E27625" stroke-width="0.25" stroke-linecap="round" stroke-linejoin="round"/>
<path d="M0.234375 13.841L1.47331 18.2723L5.89809 16.9975L3.8332 13.7803L0.234375 13.841Z" fill="#E27625" stroke="#E27625" stroke-width="0.25" stroke-linecap="round" stroke-linejoin="round"/>
<path d="M5.66277 8.25522L4.42383 10.137L8.78961 10.3191L8.67162 5.46289L5.66277 8.25522Z" fill="#E27625" stroke="#E27625" stroke-width="0.25" stroke-linecap="round" stroke-linejoin="round"/>
<path d="M14.3362 8.25522L11.2684 5.46289L11.1504 10.3798L15.5162 10.1977L14.3362 8.25522Z" fill="#E27625" stroke="#E27625" stroke-width="0.25" stroke-linecap="round" stroke-linejoin="round"/>
<path d="M5.90039 16.9974L8.55526 15.6619L6.25437 13.8408L5.90039 16.9974Z" fill="#E27625" stroke="#E27625" stroke-width="0.25" stroke-linecap="round" stroke-linejoin="round"/>
<path d="M11.4473 15.6619L14.1021 16.9974L13.7481 13.8408L11.4473 15.6619Z" fill="#E27625" stroke="#E27625" stroke-width="0.25" stroke-linecap="round" stroke-linejoin="round"/>
<path d="M14.1021 16.9966L11.4473 15.6611L11.6833 17.4215V18.15L14.1021 16.9966Z" fill="#D5BFB2" stroke="#D5BFB2" stroke-width="0.25" stroke-linecap="round" stroke-linejoin="round"/>
<path d="M5.90039 16.9964L8.37827 18.2105V17.4821L8.61425 15.7217L5.90039 16.9964Z" fill="#D5BFB2" stroke="#D5BFB2" stroke-width="0.25" stroke-linecap="round" stroke-linejoin="round"/>
<path d="M8.38016 12.6872L6.19727 12.0194L7.73119 11.291L8.38016 12.6872Z" fill="#233447" stroke="#233447" stroke-width="0.25" stroke-linecap="round" stroke-linejoin="round"/>
<path d="M11.5625 12.6872L12.2115 11.291L13.7454 12.0194L11.5625 12.6872Z" fill="#233447" stroke="#233447" stroke-width="0.25" stroke-linecap="round" stroke-linejoin="round"/>
<path d="M5.90083 16.9975L6.25482 13.7803L3.83594 13.841L5.90083 16.9975Z" fill="#CC6228" stroke="#CC6228" stroke-width="0.25" stroke-linecap="round" stroke-linejoin="round"/>
<path d="M13.6875 13.7803L14.0415 16.9975L16.1064 13.841L13.6875 13.7803Z" fill="#CC6228" stroke="#CC6228" stroke-width="0.25" stroke-linecap="round" stroke-linejoin="round"/>
<path d="M15.5748 10.1982L11.209 10.3804L11.622 12.6871L12.2709 11.2909L13.8049 12.0193L15.5748 10.1982Z" fill="#CC6228" stroke="#CC6228" stroke-width="0.25" stroke-linecap="round" stroke-linejoin="round"/>
<path d="M6.19374 12.0193L7.72766 11.2909L8.37663 12.6871L8.78961 10.3804L4.42383 10.1982L6.19374 12.0193Z" fill="#CC6228" stroke="#CC6228" stroke-width="0.25" stroke-linecap="round" stroke-linejoin="round"/>
<path d="M4.42383 10.1982L6.25274 13.9011L6.19374 12.08L4.42383 10.1982Z" fill="#E27525" stroke="#E27525" stroke-width="0.25" stroke-linecap="round" stroke-linejoin="round"/>
<path d="M13.8051 12.0185L13.7461 13.8396L15.575 10.1367L13.8051 12.0185Z" fill="#E27525" stroke="#E27525" stroke-width="0.25" stroke-linecap="round" stroke-linejoin="round"/>
<path d="M8.78798 10.3799L8.375 12.6866L8.90597 15.4182L9.02397 11.8368L8.78798 10.3799Z" fill="#E27525" stroke="#E27525" stroke-width="0.25" stroke-linecap="round" stroke-linejoin="round"/>
<path d="M11.1481 10.3799L10.9121 11.8368L11.0301 15.4182L11.5611 12.6866L11.1481 10.3799Z" fill="#E27525" stroke="#E27525" stroke-width="0.25" stroke-linecap="round" stroke-linejoin="round"/>
<path d="M11.5622 12.6873L11.0312 15.4189L11.3852 15.6617L13.6861 13.8406L13.7451 12.0195L11.5622 12.6873Z" fill="#F5841F" stroke="#F5841F" stroke-width="0.25" stroke-linecap="round" stroke-linejoin="round"/>
<path d="M6.19727 12.0195L6.25626 13.8406L8.55715 15.6617L8.91113 15.4189L8.38016 12.6873L6.19727 12.0195Z" fill="#F5841F" stroke="#F5841F" stroke-width="0.25" stroke-linecap="round" stroke-linejoin="round"/>
<path d="M11.6231 18.2111V17.4827L11.4461 17.3006H8.49626L8.31927 17.4827V18.2111L5.90039 16.9971L6.78535 17.7255L8.49626 18.9396H11.5051L13.275 17.7255L14.101 16.9971L11.6231 18.2111Z" fill="#C0AC9D" stroke="#C0AC9D" stroke-width="0.25" stroke-linecap="round" stroke-linejoin="round"/>
<path d="M11.4452 15.6618L11.0912 15.4189H8.90833L8.55435 15.6618L8.31836 17.4221L8.49535 17.24H11.4452L11.6222 17.4221L11.4452 15.6618Z" fill="#161616" stroke="#161616" stroke-width="0.25" stroke-linecap="round" stroke-linejoin="round"/>
<path d="M19.2349 6.37365L19.8838 3.09569L18.8809 0.0605469L11.4473 5.76662L14.3381 8.25543L18.4089 9.46949L19.2939 8.37684L18.8809 8.13403L19.5299 7.527L19.0579 7.16278L19.7069 6.67716L19.2349 6.37365Z" fill="#763E1A" stroke="#763E1A" stroke-width="0.25" stroke-linecap="round" stroke-linejoin="round"/>
<path d="M0.0566406 3.09569L0.705608 6.37365L0.292629 6.67716L0.941596 7.16278L0.46962 7.527L1.11859 8.13403L0.705608 8.43754L1.59056 9.5302L5.66136 8.31614L8.55222 5.82732L1.05959 0.0605469L0.0566406 3.09569Z" fill="#763E1A" stroke="#763E1A" stroke-width="0.25" stroke-linecap="round" stroke-linejoin="round"/>
<path d="M18.4069 9.46992L14.3361 8.25586L15.575 10.1376L13.7461 13.8405L16.165 13.7798H19.7638L18.4069 9.46992Z" fill="#F5841F" stroke="#F5841F" stroke-width="0.25" stroke-linecap="round" stroke-linejoin="round"/>
<path d="M5.6621 8.25586L1.59131 9.46992L0.234375 13.7798H3.83319L6.25207 13.8405L4.42317 10.1376L5.6621 8.25586Z" fill="#F5841F" stroke="#F5841F" stroke-width="0.25" stroke-linecap="round" stroke-linejoin="round"/>
<path d="M11.1493 10.3797L11.3852 5.76624L12.5652 2.48828H7.31445L8.49439 5.76624L8.73038 10.3797L8.84838 11.8365V15.418H11.0313V11.8365L11.1493 10.3797Z" fill="#F5841F" stroke="#F5841F" stroke-width="0.25" stroke-linecap="round" stroke-linejoin="round"/>
</g>
<defs>
<clipPath id="clip0_7301_47111">
<rect width="20" height="19" fill="white"/>
</clipPath>
</defs>
</svg>
