<svg 
  version="1.0" xmlns="http://www.w3.org/2000/svg"
 width="256.000000pt" height="256.000000pt" viewBox="0 0 256.000000 256.000000"
 preserveAspectRatio="xMidYMid meet" fill="#000000">

  <g transform="translate(0.000000,256.000000) scale(0.100000,-0.100000)" stroke="none">
  <path d="M587 2436 c-58 -21 -103 -61 -131 -118 l-26 -52 0 -681 c0 -616 2
  -683 17 -705 30 -46 78 -92 118 -113 l40 -22 864 -3 c952 -3 928 -4 1004 59
  21 17 48 50 60 72 l22 42 3 660 c2 487 0 671 -9 703 -7 25 -30 63 -56 92 -76
  85 -18 80 -1002 80 -697 -1 -873 -3 -904 -14z m1788 -171 l25 -24 0 -438 -1
  -438 -38 45 c-283 330 -371 428 -400 447 -41 28 -126 31 -177 7 -24 -11 -101
  -96 -242 -265 -114 -137 -211 -249 -217 -249 -6 0 -42 32 -80 71 -39 39 -83
  78 -100 86 -35 19 -121 21 -155 3 -14 -7 -109 -96 -212 -198 l-188 -187 0 562
  0 562 26 20 c27 21 32 21 881 21 l854 0 24 -25z m-231 -848 l256 -299 0 -78
  c0 -69 -3 -82 -24 -107 l-24 -28 -849 -3 c-733 -2 -851 0 -868 12 -19 14 -9
  26 190 226 116 116 218 216 229 222 16 9 34 -5 130 -100 61 -61 122 -113 136
  -117 16 -3 35 1 52 12 15 10 129 141 254 291 164 198 232 272 245 270 10 -2
  133 -137 273 -301z"/>
  <path d="M880 2114 c-78 -34 -130 -111 -130 -194 0 -125 87 -213 211 -213 181
  -1 276 213 156 350 -59 67 -159 91 -237 57z m114 -160 c24 -24 20 -61 -9 -80
  -23 -15 -27 -15 -50 0 -17 11 -25 26 -25 46 0 45 52 66 84 34z"/>
  <path d="M213 1578 c-15 -17 -48 -127 -118 -398 -108 -417 -110 -434 -58 -519
  54 -86 40 -82 893 -310 432 -115 822 -219 868 -231 71 -18 90 -20 136 -10 64
  13 124 54 155 103 30 49 94 300 86 338 -8 34 -39 59 -76 59 -52 0 -68 -26
  -103 -168 -50 -196 -53 -197 -235 -148 -69 19 -448 121 -841 226 -623 166
  -718 194 -737 216 -13 14 -23 33 -23 43 0 10 43 181 95 382 82 316 94 368 84
  392 -21 51 -89 64 -126 25z"/>
  </g>
</svg>
